<mxfile host="app.diagrams.net" modified="2021-06-16T05:15:47.272Z" agent="5.0 (Macintosh; Intel Mac OS X 10_14_6) AppleWebKit/537.36 (KHTML, like Gecko) Chrome/91.0.4472.77 Safari/537.36" etag="v7zUhRBOjk8lCNfJONOX" version="14.7.7" type="github">
  <diagram id="ok6Avo1aEugMibk1hLXR" name="第 1 页">
    <mxGraphModel dx="2595" dy="803" grid="1" gridSize="10" guides="1" tooltips="1" connect="1" arrows="1" fold="1" page="1" pageScale="1" pageWidth="1169" pageHeight="1654" math="0" shadow="0">
      <root>
        <mxCell id="0" />
        <mxCell id="1" parent="0" />
        <mxCell id="b251ukWt1x-65VZ94Y3O-1" value="" style="endArrow=classic;html=1;startArrow=none;strokeWidth=2;" edge="1" parent="1" source="b251ukWt1x-65VZ94Y3O-26">
          <mxGeometry width="50" height="50" relative="1" as="geometry">
            <mxPoint x="-80" y="360" as="sourcePoint" />
            <mxPoint x="1160" y="360" as="targetPoint" />
            <Array as="points">
              <mxPoint x="350" y="360" />
            </Array>
          </mxGeometry>
        </mxCell>
        <mxCell id="b251ukWt1x-65VZ94Y3O-2" value="20210614" style="text;html=1;strokeColor=none;fillColor=none;align=center;verticalAlign=middle;whiteSpace=wrap;rounded=0;" vertex="1" parent="1">
          <mxGeometry x="-70" y="380" width="40" height="20" as="geometry" />
        </mxCell>
        <mxCell id="b251ukWt1x-65VZ94Y3O-4" value="" style="ellipse;whiteSpace=wrap;html=1;aspect=fixed;fillColor=#60a917;strokeColor=#2D7600;fontColor=#ffffff;" vertex="1" parent="1">
          <mxGeometry x="-60" y="350" width="20" height="20" as="geometry" />
        </mxCell>
        <mxCell id="b251ukWt1x-65VZ94Y3O-8" value="交溢价1万现金" style="text;html=1;strokeColor=none;fillColor=none;align=center;verticalAlign=middle;whiteSpace=wrap;rounded=0;" vertex="1" parent="1">
          <mxGeometry x="-105" y="305" width="110" height="20" as="geometry" />
        </mxCell>
        <mxCell id="b251ukWt1x-65VZ94Y3O-10" value="1、落户申请表：现场拍照&lt;br&gt;2、缴纳首付" style="text;html=1;strokeColor=none;fillColor=none;align=left;verticalAlign=middle;whiteSpace=wrap;rounded=0;" vertex="1" parent="1">
          <mxGeometry x="90" y="305" width="150" height="20" as="geometry" />
        </mxCell>
        <mxCell id="b251ukWt1x-65VZ94Y3O-11" value="20210619" style="text;html=1;strokeColor=none;fillColor=none;align=center;verticalAlign=middle;whiteSpace=wrap;rounded=0;" vertex="1" parent="1">
          <mxGeometry x="140" y="380" width="40" height="20" as="geometry" />
        </mxCell>
        <mxCell id="b251ukWt1x-65VZ94Y3O-13" value="拿新身份证和集体户口纸 + 领结婚证&lt;br&gt;1、郑帆：拿新身份证 +&amp;nbsp;&lt;span style=&quot;font-family: &amp;#34;helvetica neue&amp;#34; ; font-size: 13px&quot;&gt;集体户口纸&lt;/span&gt;&lt;br&gt;2、方政：身份证 + 户口本" style="text;html=1;strokeColor=none;fillColor=none;align=left;verticalAlign=middle;whiteSpace=wrap;rounded=0;" vertex="1" parent="1">
          <mxGeometry x="550" y="280" width="230" height="70" as="geometry" />
        </mxCell>
        <mxCell id="b251ukWt1x-65VZ94Y3O-21" value="" style="edgeStyle=orthogonalEdgeStyle;rounded=0;orthogonalLoop=1;jettySize=auto;html=1;fontSize=7;strokeWidth=1;" edge="1" parent="1" source="b251ukWt1x-65VZ94Y3O-15" target="b251ukWt1x-65VZ94Y3O-20">
          <mxGeometry relative="1" as="geometry" />
        </mxCell>
        <mxCell id="b251ukWt1x-65VZ94Y3O-15" value="吉林派出所&lt;br&gt;销户" style="rounded=1;whiteSpace=wrap;html=1;align=center;fillColor=#fff2cc;strokeColor=#d6b656;" vertex="1" parent="1">
          <mxGeometry x="200" y="100" width="120" height="40" as="geometry" />
        </mxCell>
        <mxCell id="b251ukWt1x-65VZ94Y3O-16" value="" style="endArrow=classic;html=1;strokeWidth=1;entryX=0.5;entryY=1;entryDx=0;entryDy=0;fontSize=7;" edge="1" parent="1" target="b251ukWt1x-65VZ94Y3O-15">
          <mxGeometry width="50" height="50" relative="1" as="geometry">
            <mxPoint x="160" y="290" as="sourcePoint" />
            <mxPoint x="250" y="240" as="targetPoint" />
          </mxGeometry>
        </mxCell>
        <mxCell id="b251ukWt1x-65VZ94Y3O-17" value="准迁证明寄回吉林" style="text;html=1;strokeColor=none;fillColor=none;align=center;verticalAlign=middle;whiteSpace=wrap;rounded=0;fontSize=7;" vertex="1" parent="1">
          <mxGeometry x="160" y="200" width="120" height="20" as="geometry" />
        </mxCell>
        <mxCell id="b251ukWt1x-65VZ94Y3O-12" value="" style="ellipse;whiteSpace=wrap;html=1;aspect=fixed;fillColor=#f5f5f5;strokeColor=#666666;fontColor=#333333;" vertex="1" parent="1">
          <mxGeometry x="620" y="350" width="20" height="20" as="geometry" />
        </mxCell>
        <mxCell id="b251ukWt1x-65VZ94Y3O-19" value="" style="endArrow=none;html=1;startArrow=none;strokeWidth=2;" edge="1" parent="1" source="b251ukWt1x-65VZ94Y3O-22" target="b251ukWt1x-65VZ94Y3O-12">
          <mxGeometry width="50" height="50" relative="1" as="geometry">
            <mxPoint x="-40" y="360" as="sourcePoint" />
            <mxPoint x="1050" y="360" as="targetPoint" />
            <Array as="points" />
          </mxGeometry>
        </mxCell>
        <mxCell id="b251ukWt1x-65VZ94Y3O-20" value="武汉派出所&lt;span style=&quot;font-family: &amp;#34;helvetica neue&amp;#34; ; font-size: 13px&quot;&gt;迁入&lt;br&gt;加急办理身份证&lt;br&gt;&lt;/span&gt;" style="whiteSpace=wrap;html=1;rounded=1;fillColor=#dae8fc;strokeColor=#6c8ebf;" vertex="1" parent="1">
          <mxGeometry x="330" y="190" width="120" height="50" as="geometry" />
        </mxCell>
        <mxCell id="b251ukWt1x-65VZ94Y3O-22" value="" style="ellipse;whiteSpace=wrap;html=1;aspect=fixed;fillColor=#f5f5f5;strokeColor=#666666;fontColor=#333333;" vertex="1" parent="1">
          <mxGeometry x="150" y="350" width="20" height="20" as="geometry" />
        </mxCell>
        <mxCell id="b251ukWt1x-65VZ94Y3O-23" value="" style="endArrow=none;html=1;startArrow=none;strokeWidth=2;" edge="1" parent="1" source="b251ukWt1x-65VZ94Y3O-4" target="b251ukWt1x-65VZ94Y3O-22">
          <mxGeometry width="50" height="50" relative="1" as="geometry">
            <mxPoint x="-40" y="360" as="sourcePoint" />
            <mxPoint x="620" y="360" as="targetPoint" />
            <Array as="points" />
          </mxGeometry>
        </mxCell>
        <mxCell id="b251ukWt1x-65VZ94Y3O-24" value="" style="endArrow=classic;html=1;fontSize=7;strokeWidth=1;exitX=1;exitY=0.5;exitDx=0;exitDy=0;entryX=0;entryY=0.25;entryDx=0;entryDy=0;" edge="1" parent="1" source="b251ukWt1x-65VZ94Y3O-20" target="b251ukWt1x-65VZ94Y3O-13">
          <mxGeometry width="50" height="50" relative="1" as="geometry">
            <mxPoint x="640" y="230" as="sourcePoint" />
            <mxPoint x="690" y="180" as="targetPoint" />
          </mxGeometry>
        </mxCell>
        <mxCell id="b251ukWt1x-65VZ94Y3O-25" value="&lt;span style=&quot;font-family: &amp;#34;helvetica neue&amp;#34; ; font-size: 13px&quot;&gt;信阳领结婚证&lt;br&gt;&lt;/span&gt;" style="whiteSpace=wrap;html=1;rounded=1;fillColor=#e1d5e7;strokeColor=#9673a6;" vertex="1" parent="1">
          <mxGeometry x="780" y="510" width="120" height="50" as="geometry" />
        </mxCell>
        <mxCell id="b251ukWt1x-65VZ94Y3O-26" value="" style="ellipse;whiteSpace=wrap;html=1;aspect=fixed;fillColor=#f5f5f5;strokeColor=#666666;fontColor=#333333;" vertex="1" parent="1">
          <mxGeometry x="990" y="350" width="20" height="20" as="geometry" />
        </mxCell>
        <mxCell id="b251ukWt1x-65VZ94Y3O-27" value="" style="endArrow=none;html=1;startArrow=none;strokeWidth=2;" edge="1" parent="1" source="b251ukWt1x-65VZ94Y3O-35" target="b251ukWt1x-65VZ94Y3O-26">
          <mxGeometry width="50" height="50" relative="1" as="geometry">
            <mxPoint x="620" y="360" as="sourcePoint" />
            <mxPoint x="1050" y="360" as="targetPoint" />
            <Array as="points" />
          </mxGeometry>
        </mxCell>
        <mxCell id="b251ukWt1x-65VZ94Y3O-28" value="武汉办理贷款" style="text;html=1;strokeColor=none;fillColor=none;align=left;verticalAlign=middle;whiteSpace=wrap;rounded=0;" vertex="1" parent="1">
          <mxGeometry x="960" y="280" width="80" height="70" as="geometry" />
        </mxCell>
        <mxCell id="b251ukWt1x-65VZ94Y3O-29" value="" style="endArrow=classic;html=1;fontSize=7;strokeWidth=1;exitX=0.5;exitY=1;exitDx=0;exitDy=0;entryX=0;entryY=0.5;entryDx=0;entryDy=0;" edge="1" parent="1" source="b251ukWt1x-65VZ94Y3O-12" target="b251ukWt1x-65VZ94Y3O-25">
          <mxGeometry width="50" height="50" relative="1" as="geometry">
            <mxPoint x="790" y="470" as="sourcePoint" />
            <mxPoint x="840" y="420" as="targetPoint" />
          </mxGeometry>
        </mxCell>
        <mxCell id="b251ukWt1x-65VZ94Y3O-30" value="销户后寄回武汉" style="text;html=1;strokeColor=none;fillColor=none;align=center;verticalAlign=middle;whiteSpace=wrap;rounded=0;fontSize=7;" vertex="1" parent="1">
          <mxGeometry x="380" y="120" width="120" height="20" as="geometry" />
        </mxCell>
        <mxCell id="b251ukWt1x-65VZ94Y3O-31" value="20210620" style="text;html=1;strokeColor=none;fillColor=none;align=center;verticalAlign=middle;whiteSpace=wrap;rounded=0;" vertex="1" parent="1">
          <mxGeometry x="610" y="380" width="40" height="20" as="geometry" />
        </mxCell>
        <mxCell id="b251ukWt1x-65VZ94Y3O-32" value="" style="endArrow=none;html=1;fontSize=7;strokeWidth=1;" edge="1" parent="1">
          <mxGeometry width="50" height="50" relative="1" as="geometry">
            <mxPoint x="800" y="360" as="sourcePoint" />
            <mxPoint x="800" as="targetPoint" />
          </mxGeometry>
        </mxCell>
        <mxCell id="b251ukWt1x-65VZ94Y3O-33" value="20210624" style="text;html=1;strokeColor=none;fillColor=none;align=center;verticalAlign=middle;whiteSpace=wrap;rounded=0;" vertex="1" parent="1">
          <mxGeometry x="780" y="380" width="40" height="20" as="geometry" />
        </mxCell>
        <mxCell id="b251ukWt1x-65VZ94Y3O-34" value="之前交首付" style="text;html=1;strokeColor=none;fillColor=none;align=center;verticalAlign=middle;whiteSpace=wrap;rounded=0;fontSize=7;" vertex="1" parent="1">
          <mxGeometry x="780" y="400" width="40" height="20" as="geometry" />
        </mxCell>
        <mxCell id="b251ukWt1x-65VZ94Y3O-35" value="" style="ellipse;whiteSpace=wrap;html=1;aspect=fixed;fillColor=#f5f5f5;strokeColor=#666666;fontColor=#333333;" vertex="1" parent="1">
          <mxGeometry x="790" y="350" width="20" height="20" as="geometry" />
        </mxCell>
        <mxCell id="b251ukWt1x-65VZ94Y3O-36" value="" style="endArrow=none;html=1;startArrow=none;strokeWidth=2;" edge="1" parent="1" source="b251ukWt1x-65VZ94Y3O-12" target="b251ukWt1x-65VZ94Y3O-35">
          <mxGeometry width="50" height="50" relative="1" as="geometry">
            <mxPoint x="640" y="360" as="sourcePoint" />
            <mxPoint x="910" y="360" as="targetPoint" />
            <Array as="points" />
          </mxGeometry>
        </mxCell>
        <mxCell id="b251ukWt1x-65VZ94Y3O-38" value="" style="endArrow=classic;html=1;fontSize=7;strokeWidth=1;exitX=1;exitY=0.5;exitDx=0;exitDy=0;entryX=0;entryY=1;entryDx=0;entryDy=0;" edge="1" parent="1" source="b251ukWt1x-65VZ94Y3O-25" target="b251ukWt1x-65VZ94Y3O-26">
          <mxGeometry width="50" height="50" relative="1" as="geometry">
            <mxPoint x="980" y="540" as="sourcePoint" />
            <mxPoint x="1030" y="490" as="targetPoint" />
          </mxGeometry>
        </mxCell>
        <mxCell id="b251ukWt1x-65VZ94Y3O-39" value="拿结婚证+身份证办理贷款" style="text;html=1;strokeColor=none;fillColor=none;align=left;verticalAlign=middle;whiteSpace=wrap;rounded=0;" vertex="1" parent="1">
          <mxGeometry x="930" y="420" width="160" height="40" as="geometry" />
        </mxCell>
      </root>
    </mxGraphModel>
  </diagram>
</mxfile>
